inDegrees=yes
name=ik_S40_A12_T01
DataType=double
version=3
OpenSimVersion=4.3-2021-08-27-4bc7ad9
endheader
time	pelvis_tilt	pelvis_list	pelvis_rotation	pelvis_tx	pelvis_ty	pelvis_tz	hip_flexion_r	hip_adduction_r	hip_rotation_r	knee_angle_r	knee_angle_r_beta	ankle_angle_r	subtalar_angle_r	mtp_angle_r	hip_flexion_l	hip_adduction_l	hip_rotation_l	knee_angle_l	knee_angle_l_beta	ankle_angle_l	subtalar_angle_l	mtp_angle_l	lumbar_extension	lumbar_bending	lumbar_rotation	arm_flex_r	arm_add_r	arm_rot_r	elbow_flex_r	pro_sup_r	wrist_flex_r	wrist_dev_r	arm_flex_l	arm_add_l	arm_rot_l	elbow_flex_l	pro_sup_l	wrist_flex_l	wrist_dev_l
12.15999999999983	-0.8448816979454726	2.110164053388446	51.88739005751529	0	0.9399999999999999	0	41.21968764577137	-9.97368926515067	-9.872151415856212	48.74688277303154	0.850793604473104	0	0	0	41.21968764577137	-9.97368926515067	-9.872151415856212	48.74688277303154	0.850793604473104	0	0	0	0.8572738659484199	1.411241667853547	-3.605885628166155	-4.333019434087563	0.1450723249066042	-2.998897308580767	-0.8544780352674648	83.31525244694829	0	0	-8.153294601314522	1.92855755313956	-9.766913393586144	-2.201526505779108	92.12214606977102	0	0
12.17999999999983	-0.8706992554937696	2.121045952900729	51.85539662238708	0	0.9399999999999999	0	41.22046848814112	-9.973708154584102	-9.872210339649842	48.74775543479463	0.8508088352941263	0	0	0	41.22046848814112	-9.973708154584102	-9.872210339649842	48.74775543479463	0.8508088352941263	0	0	0	0.8497390048008264	1.438724235055661	-3.598421041665377	-4.248184905789659	0.05735986363321861	-3.078152183966627	-0.8792014523037585	83.46539970598315	0	0	-8.059426702244146	1.924545237304731	-9.701770426005888	-2.267810020023168	92.01026967292448	0	0
12.19999999999983	-0.8559941202166174	2.153199250624263	51.81014496512891	0	0.9399999999999999	0	41.23521702450176	-9.973959715695475	-9.873135821634156	48.76502990581511	0.851110331689974	0	0	0	41.23521702450176	-9.973959715695475	-9.873135821634156	48.76502990581511	0.851110331689974	0	0	0	0.8847711263721635	1.449118953289302	-3.59766568648813	-4.316262003702006	0.03245101053614951	-3.056577688928326	-0.8572604568035539	83.44737580691928	0	0	-8.10001699273702	1.945441240153966	-9.690017157398463	-2.316397745767671	91.94445683395671	0	0
12.21999999999983	-0.842637635678147	2.164235642734225	51.76144560400824	0	0.9399999999999999	0	41.23549749439438	-9.973966368248837	-9.873156722569393	48.7653477399059	0.8511158789413333	0	0	0	41.23549749439438	-9.973966368248837	-9.873156722569393	48.7653477399059	0.8511158789413333	0	0	0	0.9019068862235117	1.44512433750383	-3.604805581531588	-4.286981560938209	0.03074426856960412	-3.170452719545158	-0.8655702257337665	83.46317091864137	0	0	-8.137417494989496	1.94828384654491	-9.757240870797421	-2.321670938470791	91.93251696498348	0	0
12.23999999999983	-0.8395282343178584	2.155190973972799	51.74458887478421	0	0.9399999999999999	0	41.24983448634239	-9.974212265998606	-9.874058946853836	48.78212686928688	0.8514087299946496	0	0	0	41.24983448634239	-9.974212265998606	-9.874058946853836	48.78212686928688	0.8514087299946496	0	0	0	0.8976225277578985	1.438303331692592	-3.601069406218409	-4.2778816246847	0.0455869951604134	-3.164237442640447	-0.8586871000051222	83.49238266353476	0	0	-8.124629009590981	1.930572838260575	-9.725820063068955	-2.319734223158324	91.90692188300511	0	0
12.25999999999983	-0.839729141265372	2.136116780363936	51.7004594188909	0	0.9399999999999999	0	41.25160347188759	-9.974254703103627	-9.874191836827912	48.78410110051645	0.8514431868298012	0	0	0	41.25160347188759	-9.974254703103627	-9.874191836827912	48.78410110051645	0.8514431868298012	0	0	0	0.8818947381745089	1.42825812528232	-3.568518452285326	-4.229477733192888	0.04268499293461393	-3.505237095109676	-0.8882110012002313	83.78880959212655	0	0	-8.091100281590485	1.885250005437059	-9.772083489293404	-2.31714241332063	91.94560743279048	0	0
12.27999999999983	-0.7992835729466577	2.143854837389316	51.6506801695982	0	0.9399999999999999	0	41.26181192726389	-9.974425127729102	-9.874823426107726	48.79614067803563	0.85165331709806	0	0	0	41.26181192726389	-9.974425127729102	-9.874823426107726	48.79614067803563	0.85165331709806	0	0	0	0.9143484489664977	1.400890777839081	-3.595039259373049	-4.293387062415511	0.09232758361256224	-3.429861649747259	-0.879456964530805	83.77722757164693	0	0	-8.143047925129192	1.776415720610583	-9.922105234157272	-2.331741361627013	91.99006559647442	0	0
12.29999999999983	-0.7928755734422633	2.133698456086856	51.60276501733927	0	0.9399999999999999	0	41.26208255789657	-9.974431281335402	-9.874843059635266	48.79645672792524	0.8516588332092343	0	0	0	41.26208255789657	-9.974431281335402	-9.874843059635266	48.79645672792524	0.8516588332092343	0	0	0	0.9104325227904244	1.389465100295577	-3.597446641144597	-4.336972494447267	-0.01691518208082056	-3.452164150939594	-0.8650696131957059	83.80476331616852	0	5.38806921148701e-36	-8.125857957573173	1.697840093567428	-10.00006514743292	-2.332015707473681	92.00218785604356	0	5.38806921148701e-36
12.31999999999983	-0.7937908066812099	2.120553523646738	51.55604424645842	0	0.9399999999999999	0	41.26892092714347	-9.974554205686815	-9.875281824483837	48.80445431901767	0.8517984175060253	0	0	0	41.26892092714347	-9.974554205686815	-9.875281824483837	48.80445431901767	0.8517984175060253	0	0	0	0.9009500379957009	1.38053385023336	-3.645548475397186	-4.41777006745427	-0.08011832605665052	-3.270430599585368	-0.7487709787475122	83.83836089513024	0	0	-8.098100999852129	1.648706929593136	-10.10536663538965	-2.332435606709959	92.03560521198449	0	0
12.33999999999983	-0.7926654593623068	2.109290393166361	51.39590072716529	0	0.9399999999999999	0	41.2700724030661	-9.974581110670901	-9.875366902901549	48.80576304039526	0.8518212590030555	0	0	0	41.2700724030661	-9.974581110670901	-9.875366902901549	48.80576304039526	0.8518212590030555	0	0	0	0.8902409329896264	1.378202540525277	-3.523890077073465	-4.445260846448409	-0.1008224223086718	-3.206327912115579	-0.6978200842779262	83.86103058936935	0	0	-8.087979996042495	1.856890036025615	-10.15478911749798	-2.186441350003411	93.88703886666084	0	0
12.35999999999983	-0.7594022188093162	2.104598122963709	51.31169987007176	0	0.9399999999999999	0	41.28145717191781	-9.974768591625699	-9.876067297539691	48.81920730530549	0.8520559056912493	0	0	0	41.28145717191781	-9.974768591625699	-9.876067297539691	48.81920730530549	0.8520559056912493	0	0	0	0.9089796485564063	1.348517166601701	-3.562844433605909	-4.495336132568479	-0.09584091305843065	-3.075966846088208	-0.7299982100319957	84.02583977396689	0	0	-8.091254925369626	1.810998037585037	-10.33818541897989	-2.228011676258847	93.9822916585631	0	0
12.37999999999982	-0.730365720566428	2.10580748915112	51.28290262011726	0	0.9399999999999999	0	41.28250602269234	-9.974793073205268	-9.876144765044774	48.82039664264442	0.8520766635437306	0	0	0	41.28250602269234	-9.974793073205268	-9.876144765044774	48.82039664264442	0.8520766635437306	0	0	0	0.9295051966285326	1.324032101138896	-3.620634811880482	-4.522806612170612	-0.09621910703141789	-3.047655575664953	-0.7426358305656205	84.12132739636098	0	0	-8.056834698178259	1.827128291085341	-10.61992541733029	-2.300902753129117	94.17019054317542	0	0
12.39999999999982	-0.7216343562928133	2.100615216612218	51.27488458058222	0	0.9399999999999999	0	41.28355979413859	-9.974817262289195	-9.876221746655146	48.82160972785955	0.852097835874842	0	0	0	41.28355979413859	-9.974817262289195	-9.876221746655146	48.82160972785955	0.852097835874842	0	0	0	0.9318002428885681	1.312473465974808	-3.655664871660016	-4.514975869086174	-0.107957661123097	-3.104166340062276	-0.764377092227	84.20497283589236	0	0	-8.00146332047586	1.787871927321086	-10.84740683366202	-2.375076895483051	94.37563142089729	0	0
12.41999999999982	-0.7230476092979939	2.075102337186645	51.17322047476934	0	0.9399999999999999	0	41.29580407963039	-9.975020405247697	-9.876978151290798	48.83603684351924	0.8523496365446696	0	0	0	41.29580407963039	-9.975020405247697	-9.876978151290798	48.83603684351924	0.8523496365446696	0	0	0	0.9120495041001024	1.298066391809543	-3.669875530671537	-4.485532835701334	-0.1052236454557586	-3.068930061468196	-0.7582480111862778	84.23138356583654	0	0	-7.897033684388038	1.702497296588485	-11.0954018264075	-2.454172272937672	94.49386540822208	0	0
12.43999999999982	-0.7138047974513066	2.054270139711169	51.06884819500726	0	0.9399999999999999	0	41.29702203980074	-9.975048884704963	-9.877068271472652	48.83740891799598	0.8523735837618712	0	0	0	41.29702203980074	-9.975048884704963	-9.877068271472652	48.83740891799598	0.8523735837618712	0	0	0	0.901530680207654	1.278362640702061	-3.664993870612669	-4.453802002120605	-0.06055104847628626	-3.082815423539496	-0.7420685669999827	84.23247925323831	0	0	-7.755133665151157	1.435884822001689	-11.31437021666669	-2.294743212773997	95.14966153977237	0	0
12.45999999999982	-0.6752508025980742	2.015160665974562	50.92705587634896	0	0.9399999999999999	0	41.29828044804069	-9.975078452792868	-9.877161693800106	48.83881935007702	0.852398200445561	0	0	0	41.29828044804069	-9.975078452792868	-9.877161693800106	48.83881935007702	0.852398200445561	0	0	0	0.8953717588642255	1.224456443461488	-3.65735700783427	-4.43123654567805	0.04064397015992405	-3.110544593021366	-0.7383608832707982	84.2724097459287	0	0	-7.64643390041283	0.9854120726339696	-11.27186380540977	-2.254938097368602	95.94856538642449	0	0
12.47999999999982	-0.6681858422248795	1.991795401689607	50.79981843528249	0	0.9399999999999999	0	41.29984676300379	-9.975115271544908	-9.877278027348142	48.84057273734497	0.8524288028264494	0	0	0	41.29984676300379	-9.975115271544908	-9.877278027348142	48.84057273734497	0.8524288028264494	0	0	0	0.8799053696162291	1.208961663704965	-3.562705218187166	-4.364719833002844	0.07855105833473643	-3.250157874987945	-0.7489227922415534	84.27814621324103	0	0	-7.46919215719423	0.504786210368853	-10.72774779980455	-2.144348081767816	97.1429055104134	0	0
12.49999999999982	-0.6289392316644931	1.941918634277125	50.59417468123512	0	0.9399999999999999	0	41.30144956715229	-9.975152734740332	-9.87739664576492	48.84237501094957	0.8524602584348714	0	0	0	41.30144956715229	-9.975152734740332	-9.87739664576492	48.84237501094957	0.8524602584348714	0	0	0	0.8624645688863765	1.15557975230466	-3.435609615498338	-4.324049386502938	0.2059418364509004	-3.318631660954043	-0.7120264921912894	84.24960592854117	0	0	-7.444509900123156	0.1815283914388519	-10.80338022982036	-1.737421789107428	99.40441187109121	0	0
12.51999999999982	-0.5757761835181272	1.883891846658736	50.39572302188792	0	0.9399999999999999	0	41.30280333982083	-9.975184458817688	-9.877497021273788	48.84389237395105	0.8524867414151952	0	0	0	41.30280333982083	-9.975184458817688	-9.877497021273788	48.84389237395105	0.8524867414151952	0	0	0	0.8486495574596572	1.084833941023368	-3.282846121158014	-4.301722118925039	0.3672269639584937	-3.361261254000012	-0.6790476229761041	84.24608922067927	0	0	-7.106886369615127	-0.6553525976163805	-9.778866290045112	-1.240180798397619	100.7226768367655	0	0
12.53999999999982	-0.5076507076523737	1.792932489482654	50.19110277953556	0	0.9399999999999999	0	41.30463806526047	-9.975227122553003	-9.877632392529698	48.84596159787539	0.8525228561856361	0	0	0	41.30463806526047	-9.975227122553003	-9.877632392529698	48.84596159787539	0.8525228561856361	0	0	0	0.8177739009782704	0.9837603444809767	-3.115889484843073	-4.261926911626076	0.5825638958293015	-3.303958082624768	-0.5854701979130286	84.05862971545923	0	0	-7.053265555886662	-1.12149158495939	-9.834531889037549	-0.0957641517212235	102.8717389427528	0	0
